<?xml version="1.0" encoding="UTF-8"?>
<svg width="16px" height="16px" viewBox="0 0 16 16" version="1.1" xmlns="http://www.w3.org/2000/svg" xmlns:xlink="http://www.w3.org/1999/xlink">
    <title>角标</title>
    <g id="告警" stroke="none" stroke-width="1" fill="none" fill-rule="evenodd">
        <g id="切图" transform="translate(-453.000000, -349.000000)">
            <g id="角标" transform="translate(453.000000, 349.000000)">
                <path d="M0,0 L13,0 C14.6568542,-3.04359188e-16 16,1.34314575 16,3 L16,16 L16,16 L0,0 Z" id="矩形备份-25" fill="#2E6BE6"></path>
                <path d="M9.48127651,7.04672497 L8.36838816,5.86064311 C8.16124863,5.63988022 8.16124863,5.29617266 8.36838816,5.07540977 C8.55928803,4.87195461 8.87897595,4.86177654 9.08243111,5.05267641 C9.09024818,5.06001108 9.0978298,5.06759271 9.10516447,5.07540977 L10.2105263,6.25347012 L10.2105263,6.25347012 L12.8948355,3.39261667 C13.0857354,3.18916151 13.4054233,3.17898343 13.6088785,3.36988331 C13.6166955,3.37721798 13.6242772,3.3847996 13.6316118,3.39261667 C13.8387514,3.61337955 13.8387514,3.95708712 13.6316118,4.17785 L10.9397761,7.04672497 C10.5618766,7.44947852 9.92903231,7.46962672 9.52627876,7.09172723 C9.51080434,7.07720774 9.49579599,7.06219939 9.48127651,7.04672497 Z" id="Shape备份-2" fill="#FFFFFF"></path>
            </g>
        </g>
    </g>
</svg>